<svg class="svg-icon" style="width: 1em; height: 1em;vertical-align: middle;fill: currentColor;overflow: hidden;" viewBox="0 0 1024 1024" version="1.1" xmlns="http://www.w3.org/2000/svg"><path d="M512 0c282.76736 0 512 229.23264 512 512 0 282.7776-229.23264 512-512 512S0 794.7776 0 512C0 229.23264 229.23264 0 512 0z" fill="#2EA9D3" /><path d="M993.59744 686.08H30.40256C101.64224 883.1488 290.3552 1024 512 1024c221.65504 0 410.34752-140.8512 481.59744-337.92z" fill="#2587A9" /><path d="M686.08 833.76128c0-55.18336-77.93664-99.90144-174.08-99.90144s-174.08 44.71808-174.08 99.90144h0.03072L337.92 833.9456c0 29.81888 77.93664 53.97504 174.08 53.97504s174.08-24.15616 174.08-53.97504l-0.03072-0.18432H686.08z" fill="#FFFFFF" /><path d="M579.72736 741.70368C558.90944 738.85696 536.02304 737.28 512 737.28s-46.90944 1.57696-67.72736 4.42368c-49.05984 11.89888-86.43584 36.39296-100.33152 66.37568C363.71456 832.16384 431.36 849.92 512 849.92s148.2752-17.75616 168.05888-41.84064c-13.88544-29.99296-51.27168-54.4768-100.33152-66.37568z" fill="#F0F0F0" /><path d="M512 733.85984c-48.2816 0-91.94496 11.29472-123.4944 29.51168C408.17664 784.0768 456.00768 798.72 512 798.72s103.82336-14.6432 123.4944-35.34848c-31.54944-18.21696-75.2128-29.51168-123.4944-29.51168z" fill="#C0C0C0" /><path d="M512 184.32c158.35136 0 286.72 128.36864 286.72 286.72 0 158.3616-128.36864 286.72-286.72 286.72S225.28 629.4016 225.28 471.04c0-158.34112 128.36864-286.72 286.72-286.72z" fill="#F0F0F0" /><path d="M512 215.04a20.48 20.48 0 1 1-0.01024 40.97024A20.48 20.48 0 0 1 512 215.04z" fill="#E6877F" /><path d="M798.49472 462.12096a292.84352 292.84352 0 0 0-1.34144-21.10464C715.54048 459.83744 616.94976 471.04 512 471.04s-203.54048-11.20256-285.15328-30.02368c-0.7168 6.9632-1.1264 13.99808-1.34144 21.10464C307.28192 480.75776 405.4016 491.52 512 491.52s204.70784-10.76224 286.49472-29.39904z" fill="#D8D8D8" /><path d="M512 296.97024c-96.14336 0-174.08 77.9264-174.08 174.08 0 96.14336 77.93664 174.08 174.08 174.08s174.08-77.93664 174.08-174.08-77.93664-174.08-174.08-174.08z" fill="#2B414D" /><path d="M512 337.79712c-73.59488 0-133.25312 59.66848-133.25312 133.26336 0 73.59488 59.65824 133.25312 133.25312 133.25312s133.25312-59.65824 133.25312-133.25312S585.59488 337.79712 512 337.79712z" fill="#475F6C" /><path d="M512 368.70144c-56.53504 0-102.3488 45.83424-102.3488 102.35904 0 56.5248 45.824 102.33856 102.3488 102.33856s102.3488-45.824 102.3488-102.33856c0-56.53504-45.81376-102.35904-102.3488-102.35904z" fill="#2B414D" /><path d="M512 419.71712a51.34336 51.34336 0 1 0 0 102.67648 51.34336 51.34336 0 0 0 0-102.67648z" fill="#1E2D36" /><path d="M491.60192 430.25408a20.39808 20.39808 0 1 1 0 40.78592 20.39808 20.39808 0 0 1 0-40.78592z" fill="#566268" /><path d="M512 716.8c-151.4496 0-275.4048-117.4528-285.91104-266.24A288.59392 288.59392 0 0 0 225.28 471.04c0 158.3616 128.36864 286.72 286.72 286.72s286.72-128.3584 286.72-286.72c0-6.89152-0.32768-13.70112-0.80896-20.48C787.4048 599.3472 663.45984 716.8 512 716.8z" fill="#D8D8D8" /><path d="M512 245.76a20.4288 20.4288 0 0 1-19.75296-15.36A20.20352 20.20352 0 0 0 491.52 235.52a20.48 20.48 0 0 0 40.96 0c0-1.78176-0.29696-3.47136-0.7168-5.12A20.43904 20.43904 0 0 1 512 245.76z" fill="#BC6E68" /></svg>